<svg width="100" height="100" viewBox="0 0 100 100" fill="none" xmlns="http://www.w3.org/2000/svg">
                        <path d="M32.8017 9C19.6935 9 9 19.6935 9 32.8017V67.1983C9 80.3065 19.6935 91 32.8017 91H67.1983C80.3065 91 91 80.3065 91 67.1983V32.8017C91 19.6935 80.3065 9 67.1983 9H32.8017ZM32.8017 15.3077H67.1983C76.8939 15.3077 84.6923 23.0937 84.6923 32.8017V67.1983C84.6923 76.8939 76.9062 84.6923 67.1983 84.6923H32.8017C23.1061 84.6923 15.3077 76.9062 15.3077 67.1983V32.8017C15.3077 23.1061 23.0937 15.3077 32.8017 15.3077ZM73.6538 21.6154C71.0421 21.6154 68.9231 23.7344 68.9231 26.3462C68.9231 28.9579 71.0421 31.0769 73.6538 31.0769C76.2656 31.0769 78.3846 28.9579 78.3846 26.3462C78.3846 23.7344 76.2656 21.6154 73.6538 21.6154ZM50 27.9231C37.8404 27.9231 27.9231 37.8404 27.9231 50C27.9231 62.1596 37.8404 72.0769 50 72.0769C62.1596 72.0769 72.0769 62.1596 72.0769 50C72.0769 37.8404 62.1596 27.9231 50 27.9231ZM50 34.2308C58.747 34.2308 65.7692 41.253 65.7692 50C65.7692 58.747 58.747 65.7692 50 65.7692C41.253 65.7692 34.2308 58.747 34.2308 50C34.2308 41.253 41.253 34.2308 50 34.2308Z" fill="white"/>
                    </svg>